<?xml version="1.0" encoding="UTF-8"?><svg id="uuid-95801c58-de80-4953-926a-f62884db4368" xmlns="http://www.w3.org/2000/svg" viewBox="0 0 456.46 210.28"><defs><style>.uuid-25a905e2-a953-476c-8de4-08163799d513{fill:#f32012;}.uuid-136def32-e977-4db7-849d-532f33513c01{fill:#fff;}</style></defs><g><path class="uuid-25a905e2-a953-476c-8de4-08163799d513" d="m131.03,80.92c3.34,0,6.2.56,8.57,1.68,2.37,1.12,4.2,2.74,5.49,4.86,1.29,2.12,1.94,4.68,1.94,7.68,0,1.82-.28,3.61-.83,5.37-.55,1.76-1.43,3.34-2.64,4.76-1.21,1.42-2.78,2.55-4.73,3.4-1.95.85-4.32,1.27-7.11,1.27h-6.79v16.89h-6.16v-45.91h12.26Zm.63,23.11c1.82,0,3.32-.29,4.51-.89,1.18-.59,2.12-1.34,2.79-2.25.68-.91,1.16-1.87,1.46-2.89.29-1.02.44-1.93.44-2.73,0-.93-.15-1.89-.44-2.89-.3-.99-.79-1.9-1.49-2.73-.7-.83-1.61-1.5-2.73-2.03-1.12-.53-2.51-.79-4.16-.79h-7.11v17.21h6.73Z"/><path class="uuid-25a905e2-a953-476c-8de4-08163799d513" d="m169.25,80.96c2.33,0,4.48.31,6.45.92,1.97.61,3.68,1.52,5.14,2.73,1.46,1.21,2.6,2.69,3.43,4.44.83,1.76,1.24,3.8,1.24,6.13,0,1.82-.26,3.6-.79,5.33-.53,1.74-1.41,3.31-2.63,4.73-1.23,1.42-2.83,2.56-4.79,3.43-1.97.87-4.39,1.3-7.27,1.3h-6.79v16.89h-6.16v-45.91h12.19Zm.63,23.11c1.82,0,3.33-.27,4.54-.83,1.21-.55,2.15-1.26,2.83-2.13.68-.87,1.16-1.81,1.46-2.83.29-1.02.44-1.97.44-2.86s-.16-1.89-.48-2.89-.83-1.92-1.52-2.76c-.7-.85-1.61-1.54-2.73-2.1-1.12-.55-2.49-.83-4.1-.83h-7.11v17.21h6.67Zm7.56,3.49l12,19.3h-7.11l-12.19-19.11,7.3-.19Z"/><path class="uuid-25a905e2-a953-476c-8de4-08163799d513" d="m198.78,80.84h29.85v5.91h-23.69v13.97h21.15v5.91h-21.15v14.22h24.57v5.91h-30.73v-45.91Z"/><path class="uuid-25a905e2-a953-476c-8de4-08163799d513" d="m270.73,118.51c0,3.73-.71,6.9-2.13,9.52-1.42,2.62-3.36,4.62-5.81,6-2.46,1.38-5.27,2.13-8.45,2.25v-5.97c2.96-.17,5.41-1.22,7.33-3.14,1.93-1.93,2.89-4.88,2.89-8.86v-37.4h6.16v37.59Z"/><path class="uuid-25a905e2-a953-476c-8de4-08163799d513" d="m284.38,80.73h6.16v45.91h-6.16v-45.91Z"/><path class="uuid-25a905e2-a953-476c-8de4-08163799d513" d="m315.94,80.92c2.33,0,4.48.31,6.45.92,1.97.61,3.68,1.52,5.14,2.73,1.46,1.21,2.6,2.69,3.43,4.44.83,1.76,1.24,3.8,1.24,6.13,0,1.82-.26,3.6-.79,5.33-.53,1.74-1.41,3.31-2.63,4.73-1.23,1.42-2.83,2.56-4.79,3.43-1.97.87-4.39,1.3-7.27,1.3h-6.79v16.89h-6.16v-45.91h12.19Zm.63,23.11c1.82,0,3.33-.27,4.54-.83,1.21-.55,2.15-1.26,2.83-2.13.68-.87,1.16-1.81,1.46-2.83.29-1.02.44-1.97.44-2.86s-.16-1.89-.48-2.89-.83-1.92-1.52-2.76c-.7-.85-1.61-1.54-2.73-2.1-1.12-.55-2.49-.83-4.1-.83h-7.11v17.21h6.67Zm7.56,3.49l12,19.3h-7.11l-12.19-19.11,7.3-.19Z"/><path class="uuid-25a905e2-a953-476c-8de4-08163799d513" d="m346.42,80.67h29.85v5.91h-23.69v13.97h21.15v5.91h-21.15v14.22h24.57v5.91h-30.73v-45.91Z"/><path class="uuid-25a905e2-a953-476c-8de4-08163799d513" d="m424.14,80.92v45.91h-6.1v-20.13h-24.07v20.13h-6.16v-45.91h6.16v19.94h24.07v-19.94h6.1Z"/></g><circle class="uuid-25a905e2-a953-476c-8de4-08163799d513" cx="66.43" cy="105.14" r="40.71"/><circle class="uuid-25a905e2-a953-476c-8de4-08163799d513" cx="66.55" cy="105.27" r="9.73"/><g><path class="uuid-136def32-e977-4db7-849d-532f33513c01" d="m77.5,101.93l18.06-7.79c2.59-1.12,5.6.08,6.71,2.67,1.5,3.27-1.11,7.2-4.69,7.13,0,0-19.67,0-19.67,0-1.12.02-1.45-1.6-.42-2.02h0Z"/><path class="uuid-136def32-e977-4db7-849d-532f33513c01" d="m75.26,98.02l14.23-13.58c2.04-1.95,5.27-1.87,7.22.17,2.54,2.55,1.46,7.14-1.92,8.32,0,0-18.44,6.84-18.44,6.84-1.05.41-1.91-.99-1.09-1.75h0Z"/><path class="uuid-136def32-e977-4db7-849d-532f33513c01" d="m72.11,95.09l7.55-18.25c1.08-2.61,4.07-3.85,6.67-2.77,3.35,1.3,4.22,5.93,1.62,8.37,0,0-14.13,13.79-14.13,13.79-.79.8-2.15-.13-1.71-1.15h0Z"/><path class="uuid-136def32-e977-4db7-849d-532f33513c01" d="m68.1,93.63l-.85-19.5c-.12-2.82,2.06-5.2,4.88-5.33,3.6-.24,6.34,3.62,4.99,6.94,0,0-7,18.22-7,18.22-.39,1.05-2.01.78-2.03-.33h0Z"/><path class="uuid-136def32-e977-4db7-849d-532f33513c01" d="m54.94,103.95s-19.67,0-19.67,0c-2.82,0-5.11-2.29-5.11-5.11-.08-3.6,3.88-6.17,7.13-4.69,0,0,18.06,7.79,18.06,7.79,1.04.43.7,2.04-.42,2.02h0Z"/><path class="uuid-136def32-e977-4db7-849d-532f33513c01" d="m56.51,99.77l-18.44-6.84c-2.64-.98-3.99-3.92-3.01-6.57,1.18-3.4,5.78-4.44,8.32-1.92,0,0,14.23,13.58,14.23,13.58.82.76-.05,2.15-1.09,1.75h0Z"/><path class="uuid-136def32-e977-4db7-849d-532f33513c01" d="m59.05,96.24l-14.13-13.79c-2.02-1.97-2.06-5.2-.09-7.22,2.46-2.63,7.07-1.71,8.37,1.62,0,0,7.55,18.25,7.55,18.25.44,1.03-.92,1.95-1.71,1.15h0Z"/><path class="uuid-136def32-e977-4db7-849d-532f33513c01" d="m62.73,93.96l-7-18.22c-1.01-2.63.3-5.59,2.94-6.6,3.34-1.37,7.16,1.42,6.94,4.99,0,0-.85,19.5-.85,19.5-.03,1.12-1.65,1.38-2.03.33h0Z"/><path class="uuid-136def32-e977-4db7-849d-532f33513c01" d="m77.92,106.33s19.67,0,19.67,0c2.82,0,5.11,2.29,5.11,5.11.08,3.6-3.88,6.17-7.13,4.69,0,0-18.06-7.79-18.06-7.79-1.04-.43-.7-2.04.42-2.02h0Z"/><path class="uuid-136def32-e977-4db7-849d-532f33513c01" d="m76.35,110.51l18.44,6.84c2.65.98,3.99,3.92,3.01,6.57-1.18,3.4-5.78,4.44-8.32,1.92,0,0-14.23-13.58-14.23-13.58-.82-.76.05-2.15,1.09-1.75h0Z"/><path class="uuid-136def32-e977-4db7-849d-532f33513c01" d="m73.81,114.04l14.13,13.79c2.02,1.97,2.06,5.2.09,7.22-2.46,2.63-7.07,1.71-8.37-1.62,0,0-7.55-18.25-7.55-18.25-.44-1.03.92-1.95,1.71-1.15h0Z"/><path class="uuid-136def32-e977-4db7-849d-532f33513c01" d="m70.13,116.32l7,18.22c1.01,2.63-.3,5.59-2.94,6.6-3.34,1.37-7.16-1.42-6.94-4.99,0,0,.85-19.5.85-19.5.03-1.12,1.65-1.38,2.03-.33h0Z"/><path class="uuid-136def32-e977-4db7-849d-532f33513c01" d="m55.36,108.35l-18.06,7.79c-2.59,1.12-5.6-.08-6.71-2.67-1.5-3.27,1.11-7.2,4.69-7.13,0,0,19.67,0,19.67,0,1.12-.02,1.45,1.6.42,2.02h0Z"/><path class="uuid-136def32-e977-4db7-849d-532f33513c01" d="m57.6,112.26l-14.23,13.58c-2.04,1.95-5.27,1.87-7.22-.17-2.54-2.55-1.46-7.14,1.92-8.32,0,0,18.44-6.84,18.44-6.84,1.05-.41,1.91.99,1.09,1.75h0Z"/><path class="uuid-136def32-e977-4db7-849d-532f33513c01" d="m60.75,115.19l-7.55,18.25c-1.08,2.61-4.07,3.85-6.67,2.77-3.35-1.3-4.22-5.93-1.62-8.37,0,0,14.13-13.79,14.13-13.79.79-.8,2.15.13,1.71,1.15h0Z"/><path class="uuid-136def32-e977-4db7-849d-532f33513c01" d="m64.76,116.65l.85,19.5c.12,2.82-2.06,5.2-4.88,5.33-3.6.24-6.34-3.62-4.99-6.94,0,0,7-18.22,7-18.22.39-1.05,2.01-.78,2.03.33h0Z"/></g></svg>