<?xml version="1.0" encoding="UTF-8"?><svg xmlns="http://www.w3.org/2000/svg" viewBox="0 0 398.74 81.42"><defs><style>.d{fill:#f32012;}</style></defs><g id="a"/><g id="b"><g id="c"><g><g><path class="d" d="M114.2,18.95c-2.37-1.12-5.23-1.68-8.57-1.68h-12.26V63.18h6.16v-16.89h6.79c2.79,0,5.16-.42,7.11-1.27,1.95-.85,3.52-1.98,4.73-3.4,1.21-1.42,2.09-3,2.64-4.76s.83-3.55,.83-5.37c0-3-.65-5.56-1.94-7.68-1.29-2.12-3.12-3.74-5.49-4.86Zm.82,15.4c-.3,1.02-.78,1.98-1.46,2.89-.67,.91-1.61,1.66-2.79,2.25-1.19,.6-2.69,.89-4.51,.89h-6.73V23.18h7.11c1.65,0,3.04,.26,4.16,.79,1.12,.53,2.03,1.2,2.73,2.03s1.19,1.74,1.49,2.73c.29,1,.44,1.96,.44,2.89,0,.8-.15,1.71-.44,2.73Z"/><path class="d" d="M156.69,41.59c1.22-1.42,2.1-2.99,2.63-4.73,.53-1.73,.79-3.51,.79-5.33,0-2.33-.41-4.37-1.24-6.13-.83-1.75-1.97-3.23-3.43-4.44-1.46-1.21-3.17-2.12-5.14-2.73-1.97-.61-4.12-.92-6.45-.92h-12.17V63.21h6.16v-16.89h6.79c.52,0,1-.03,1.49-.06l10.81,16.95h7.11l-11.51-18.51c1.67-.83,3.07-1.85,4.16-3.11Zm-12.21-1.17v-.02h-6.67V23.19h7.11c1.61,0,2.98,.28,4.1,.83,1.12,.56,2.03,1.25,2.73,2.1,.69,.84,1.2,1.76,1.52,2.76,.32,1,.48,2,.48,2.89s-.15,1.84-.44,2.86c-.3,1.02-.78,1.96-1.46,2.83-.68,.87-1.62,1.58-2.83,2.13-1.21,.56-2.72,.83-4.54,.83Z"/><polygon class="d" points="179.54 42.98 200.69 42.98 200.69 37.07 179.54 37.07 179.54 23.1 203.23 23.1 203.23 17.19 173.38 17.19 173.38 17.2 173.38 63.11 204.11 63.11 204.11 57.2 179.54 57.2 179.54 42.98"/><path class="d" d="M245.32,17.26h-6.16V54.66c0,3.98-.96,6.93-2.89,8.86-1.92,1.92-4.37,2.97-7.33,3.14v5.97c3.18-.12,5.99-.87,8.45-2.25,2.45-1.38,4.39-3.38,5.81-6,1.42-2.62,2.13-5.79,2.13-9.52h-.01V17.26Z"/><rect class="d" x="258.98" y="17.08" width="6.16" height="45.91"/><path class="d" d="M303.38,41.55c1.22-1.42,2.1-2.99,2.63-4.73,.53-1.73,.79-3.51,.79-5.33,0-2.33-.41-4.37-1.24-6.13-.83-1.75-1.97-3.23-3.43-4.44s-3.17-2.12-5.14-2.73c-1.97-.61-4.12-.92-6.45-.92h-12.17V63.17h6.16v-16.89h6.79c.52,0,1-.03,1.49-.06l10.81,16.95h7.11l-11.51-18.51c1.67-.83,3.07-1.85,4.16-3.11Zm-12.21-1.17v-.02h-6.67V23.15h7.11c1.61,0,2.98,.28,4.1,.83,1.12,.56,2.03,1.25,2.73,2.1,.69,.84,1.2,1.76,1.52,2.76s.48,2,.48,2.89-.15,1.84-.44,2.86c-.3,1.02-.78,1.96-1.46,2.83s-1.62,1.58-2.83,2.13c-1.21,.56-2.72,.83-4.54,.83Z"/><polygon class="d" points="327.18 42.81 348.33 42.81 348.33 36.9 327.18 36.9 327.18 22.93 350.87 22.93 350.87 17.02 321.02 17.02 321.02 17.03 321.02 62.94 351.75 62.94 351.75 57.03 327.18 57.03 327.18 42.81"/><polygon class="d" points="392.64 17.27 392.64 37.21 368.57 37.21 368.57 17.27 362.41 17.27 362.41 63.18 368.57 63.18 368.57 43.05 392.64 43.05 392.64 63.18 398.74 63.18 398.74 17.27 392.64 17.27"/></g><path class="d" d="M40.71,0C18.23,0,0,18.23,0,40.71s18.23,40.71,40.71,40.71,40.71-18.23,40.71-40.71S63.19,0,40.71,0ZM19.11,10.8c2.46-2.63,7.07-1.71,8.37,1.62l7.55,18.25c.44,1.03-.92,1.95-1.71,1.15h.01l-14.13-13.8c-2.02-1.97-2.06-5.2-.09-7.22Zm-9.77,11.13c1.18-3.4,5.78-4.44,8.32-1.92l14.23,13.58c.82,.76-.05,2.15-1.09,1.75h-.01l-18.44-6.84c-2.64-.98-3.99-3.92-3.01-6.57Zm2.23,7.79l18.06,7.79c1.04,.43,.7,2.04-.42,2.02H9.55c-2.82-.01-5.11-2.3-5.11-5.12-.08-3.6,3.88-6.17,7.13-4.69Zm-6.7,19.32c-1.5-3.27,1.11-7.2,4.69-7.13H29.23c1.12-.02,1.45,1.6,.42,2.02h-.01l-18.06,7.78c-2.59,1.12-5.6-.08-6.71-2.67Zm5.56,12.2c-2.54-2.55-1.46-7.14,1.92-8.32l18.44-6.84c1.05-.41,1.91,.99,1.09,1.75l-14.23,13.58c-2.04,1.95-5.27,1.87-7.22-.17Zm10.38,10.54c-3.35-1.3-4.22-5.93-1.62-8.37l14.13-13.79c.79-.8,2.15,.13,1.71,1.15h0l-7.55,18.24c-1.08,2.61-4.07,3.85-6.67,2.77Zm14.2,5.27c-3.6,.24-6.34-3.62-4.99-6.94l7-18.22c.39-1.05,2.01-.78,2.03,.33h-.01l.85,19.5c.12,2.82-2.06,5.2-4.88,5.33Zm4.03-47.85c-.03,1.12-1.65,1.38-2.03,.33l-7-18.22c-1.01-2.63,.3-5.59,2.94-6.6,3.34-1.37,7.16,1.42,6.94,4.99l-.85,19.5Zm37.51,3.18c1.5,3.27-1.11,7.2-4.69,7.13h-19.67c-1.12,.02-1.45-1.6-.42-2.02h.01l18.06-7.78c2.59-1.12,5.6,.08,6.71,2.67Zm-5.56-12.2c2.54,2.55,1.46,7.14-1.92,8.32l-18.44,6.84c-1.05,.41-1.91-.99-1.09-1.75l14.23-13.58c2.04-1.95,5.27-1.87,7.22,.17Zm-10.38-10.54c3.35,1.3,4.22,5.93,1.62,8.37l-14.13,13.79c-.79,.8-2.15-.13-1.71-1.15h0l7.55-18.24c1.08-2.61,4.07-3.85,6.67-2.77Zm-14.2-5.27c3.6-.24,6.34,3.62,4.99,6.94l-7,18.22c-.39,1.05-2.01,.78-2.03-.33h0l-.85-19.5c-.12-2.82,2.06-5.2,4.88-5.33Zm2.06,72.34c-3.34,1.37-7.16-1.42-6.94-4.99l.85-19.5c.03-1.12,1.65-1.38,2.03-.33l7,18.22c1.01,2.63-.3,5.59-2.94,6.6Zm13.84-6.09c-2.46,2.63-7.07,1.71-8.37-1.62l-7.55-18.25c-.44-1.03,.92-1.95,1.71-1.15h-.01l14.13,13.8c2.02,1.97,2.06,5.2,.09,7.22Zm9.77-11.13c-1.18,3.4-5.78,4.44-8.32,1.92l-14.23-13.58c-.82-.76,.05-2.15,1.09-1.75h0l18.44,6.84c2.65,.98,3.99,3.92,3.01,6.57Zm-2.23-7.79l-18.06-7.79c-1.04-.43-.7-2.04,.42-2.02h19.66c2.82,.01,5.11,2.3,5.11,5.12,.08,3.6-3.88,6.17-7.13,4.69Z"/></g></g></g></svg>