<?xml version="1.0" encoding="utf-8"?>
<svg viewBox="142.214 20.592 166.666 335.908" width="166.666" height="335.908" xmlns="http://www.w3.org/2000/svg">
  <g id="b" transform="matrix(1, 0, 0, 1, 131.410069, 149.096638)">
    <path class="d" d="M 175.861 -109.342 C 88.185 -109.342 17.087 -43 17.087 38.807 C 17.087 120.614 88.185 186.954 175.861 186.954 C 263.534 186.954 334.635 120.614 334.635 38.807 C 334.635 -43 263.534 -109.342 175.861 -109.342 Z M 91.618 -70.04 C 101.212 -79.61 119.192 -76.262 124.262 -64.144 L 153.708 2.27 C 155.425 6.018 150.12 9.365 147.039 6.454 L 147.078 6.454 L 91.969 -43.764 C 84.09 -50.934 83.936 -62.688 91.618 -70.04 Z M 53.516 -29.536 C 58.116 -41.909 76.057 -45.695 85.964 -36.523 L 141.462 12.894 C 144.661 15.662 141.266 20.719 137.21 19.264 L 137.172 19.264 L 65.254 -5.627 C 54.956 -9.192 49.692 -19.892 53.516 -29.536 Z M 62.212 -1.188 L 132.647 27.162 C 136.703 28.725 135.376 34.584 131.009 34.513 L 54.333 34.513 C 43.336 34.476 34.405 26.142 34.405 15.88 C 34.091 2.779 49.536 -6.574 62.212 -1.188 Z M 36.08 69.119 C 30.23 57.221 40.41 42.92 54.372 43.173 L 131.087 43.173 C 135.455 43.1 136.743 48.995 132.726 50.525 L 132.686 50.525 L 62.251 78.838 C 52.148 82.913 40.41 78.547 36.08 69.119 Z M 57.765 113.518 C 47.859 104.238 52.071 87.535 65.254 83.239 L 137.172 58.348 C 141.266 56.857 144.621 61.952 141.422 64.718 L 85.924 114.137 C 77.968 121.233 65.372 120.94 57.765 113.518 Z M 98.249 151.874 C 85.184 147.142 81.789 130.293 91.932 121.414 L 147.039 71.23 C 150.12 68.32 155.425 71.704 153.708 75.414 L 124.262 141.794 C 120.05 151.29 108.388 155.803 98.249 151.874 Z M 153.629 171.051 C 139.588 171.925 128.903 157.878 134.168 145.796 L 161.469 79.491 C 162.991 75.671 169.309 76.653 169.387 80.692 L 169.348 80.692 L 172.662 151.655 C 173.131 161.918 164.629 170.579 153.629 171.051 Z M 169.348 -3.079 C 169.229 0.996 162.911 1.942 161.429 -1.878 L 134.13 -68.184 C 130.192 -77.754 135.299 -88.527 145.596 -92.201 C 158.622 -97.187 173.52 -87.033 172.662 -74.043 L 169.348 -3.079 Z M 315.64 8.493 C 321.49 20.394 311.312 34.694 297.35 34.439 L 220.634 34.439 C 216.266 34.513 214.98 28.617 218.996 27.089 L 219.036 27.089 L 289.473 -1.224 C 299.572 -5.299 311.312 -0.931 315.64 8.493 Z M 293.955 -35.906 C 303.862 -26.623 299.649 -9.921 286.469 -5.627 L 214.551 19.264 C 210.454 20.756 207.101 15.662 210.298 12.894 L 265.796 -36.523 C 273.754 -43.619 286.35 -43.328 293.955 -35.906 Z M 253.473 -74.259 C 266.538 -69.53 269.931 -52.681 259.792 -43.801 L 204.682 6.382 C 201.601 9.292 196.298 5.908 198.013 2.198 L 227.46 -64.182 C 231.673 -73.678 243.334 -78.191 253.473 -74.259 Z M 198.09 -93.439 C 212.131 -94.313 222.817 -80.265 217.553 -68.184 L 190.253 -1.878 C 188.731 1.942 182.413 0.96 182.335 -3.079 L 179.021 -74.043 C 178.551 -84.306 187.054 -92.966 198.053 -93.439 L 198.09 -93.439 Z M 206.126 169.815 C 193.099 174.8 178.2 164.648 179.058 151.655 L 182.375 80.692 C 182.49 76.616 188.808 75.671 190.29 79.491 L 217.592 145.796 C 221.53 155.367 216.422 166.139 206.126 169.815 Z M 260.102 147.653 C 250.51 157.223 232.53 153.874 227.46 141.758 L 198.013 75.343 C 196.298 71.596 201.601 68.247 204.682 71.158 L 204.644 71.158 L 259.751 121.379 C 267.632 128.547 267.787 140.301 260.102 147.653 Z M 298.208 107.148 C 293.605 119.522 275.665 123.307 265.759 114.137 L 210.261 64.718 C 207.061 61.952 210.454 56.893 214.51 58.348 L 286.429 83.239 C 296.763 86.808 301.99 97.504 298.168 107.148 L 298.208 107.148 Z M 289.51 78.8 L 219.073 50.453 C 215.017 48.887 216.343 43.028 220.711 43.1 L 297.387 43.1 C 308.387 43.136 317.318 51.47 317.318 61.732 C 317.631 74.833 302.186 84.186 289.51 78.8 Z" style="fill: rgb(243, 32, 18);"/>
  </g>
</svg>