<?xml version="1.0" encoding="utf-8"?>
<svg viewBox="0 0 500 500" width="500" height="500" xmlns="http://www.w3.org/2000/svg">
  <g id="a" transform="matrix(1, 0, 0, 1, 201.751593, 328.829508)"/>
  <g id="b" transform="matrix(1, 0, 0, 1, 61.846048, 284.555612)">
    <g id="c">
      <g>
        <g/>
        <path class="d" d="M 204.819 -143.448 C 117.143 -143.448 46.045 -77.106 46.045 4.701 C 46.045 86.508 117.143 152.848 204.819 152.848 C 292.492 152.848 363.593 86.508 363.593 4.701 C 363.593 -77.106 292.492 -143.448 204.819 -143.448 Z M 120.576 -104.146 C 130.17 -113.716 148.15 -110.368 153.22 -98.25 L 182.666 -31.836 C 184.383 -28.088 179.078 -24.741 175.997 -27.652 L 176.036 -27.652 L 120.927 -77.87 C 113.048 -85.04 112.894 -96.794 120.576 -104.146 Z M 82.474 -63.642 C 87.074 -76.015 105.015 -79.801 114.922 -70.629 L 170.42 -21.212 C 173.619 -18.444 170.224 -13.387 166.168 -14.842 L 166.13 -14.842 L 94.212 -39.733 C 83.914 -43.298 78.65 -53.998 82.474 -63.642 Z M 91.17 -35.294 L 161.605 -6.944 C 165.661 -5.381 164.334 0.478 159.967 0.407 L 83.291 0.407 C 72.294 0.37 63.363 -7.964 63.363 -18.226 C 63.049 -31.327 78.494 -40.68 91.17 -35.294 Z M 65.038 35.013 C 59.188 23.115 69.368 8.814 83.33 9.067 L 160.045 9.067 C 164.413 8.994 165.701 14.889 161.684 16.419 L 161.644 16.419 L 91.209 44.732 C 81.106 48.807 69.368 44.441 65.038 35.013 Z M 86.723 79.412 C 76.817 70.132 81.029 53.429 94.212 49.133 L 166.13 24.242 C 170.224 22.751 173.579 27.846 170.38 30.612 L 114.882 80.031 C 106.926 87.127 94.33 86.834 86.723 79.412 Z M 127.207 117.768 C 114.142 113.036 110.747 96.187 120.89 87.308 L 175.997 37.124 C 179.078 34.214 184.383 37.598 182.666 41.308 L 153.22 107.688 C 149.008 117.184 137.346 121.697 127.207 117.768 Z M 182.587 136.945 C 168.546 137.819 157.861 123.772 163.126 111.69 L 190.427 45.385 C 191.949 41.565 198.267 42.547 198.345 46.586 L 198.306 46.586 L 201.62 117.549 C 202.089 127.812 193.587 136.473 182.587 136.945 Z M 198.306 -37.185 C 198.187 -33.11 191.869 -32.164 190.387 -35.984 L 163.088 -102.29 C 159.15 -111.86 164.257 -122.633 174.554 -126.307 C 187.58 -131.293 202.478 -121.139 201.62 -108.149 L 198.306 -37.185 Z M 344.598 -25.613 C 350.448 -13.712 340.27 0.588 326.308 0.333 L 249.592 0.333 C 245.224 0.407 243.938 -5.489 247.954 -7.017 L 247.994 -7.017 L 318.431 -35.33 C 328.53 -39.405 340.27 -35.037 344.598 -25.613 Z M 322.913 -70.012 C 332.82 -60.729 328.607 -44.027 315.427 -39.733 L 243.509 -14.842 C 239.412 -13.35 236.059 -18.444 239.256 -21.212 L 294.754 -70.629 C 302.712 -77.725 315.308 -77.434 322.913 -70.012 Z M 282.431 -108.365 C 295.496 -103.636 298.889 -86.787 288.75 -77.907 L 233.64 -27.724 C 230.559 -24.814 225.256 -28.198 226.971 -31.908 L 256.418 -98.288 C 260.631 -107.784 272.292 -112.297 282.431 -108.365 Z M 227.048 -127.545 C 241.089 -128.419 251.775 -114.371 246.511 -102.29 L 219.211 -35.984 C 217.689 -32.164 211.371 -33.146 211.293 -37.185 L 207.979 -108.149 C 207.509 -118.412 216.012 -127.072 227.011 -127.545 L 227.048 -127.545 Z M 235.084 135.709 C 222.057 140.694 207.158 130.542 208.016 117.549 L 211.333 46.586 C 211.448 42.51 217.766 41.565 219.248 45.385 L 246.55 111.69 C 250.488 121.261 245.38 132.033 235.084 135.709 Z M 289.06 113.547 C 279.468 123.117 261.488 119.768 256.418 107.652 L 226.971 41.237 C 225.256 37.49 230.559 34.141 233.64 37.052 L 233.602 37.052 L 288.709 87.273 C 296.59 94.441 296.745 106.195 289.06 113.547 Z M 327.166 73.042 C 322.563 85.416 304.623 89.201 294.717 80.031 L 239.219 30.612 C 236.019 27.846 239.412 22.787 243.468 24.242 L 315.387 49.133 C 325.721 52.702 330.948 63.398 327.126 73.042 L 327.166 73.042 Z M 318.468 44.694 L 248.031 16.347 C 243.975 14.781 245.301 8.922 249.669 8.994 L 326.345 8.994 C 337.345 9.03 346.276 17.364 346.276 27.626 C 346.589 40.727 331.144 50.08 318.468 44.694 Z" style="fill: rgb(243, 32, 18);"/>
      </g>
    </g>
  </g>
</svg>